<svg xmlns="http://www.w3.org/2000/svg" width="839" height="251" viewBox="0 0 839 251"><g><g><path fill="#fff" d="M833.029 220.959c0 13.225-10.724 23.946-23.952 23.946H24.392C11.15 244.919.402 234.199.385 220.959V29.999C.4 16.755 11.144 6.026 24.393 6.022h784.653c13.242 0 23.977 10.733 23.977 23.97V30l.006 190.96z"/></g><g><path fill="#010101" d="M833.029 220.959c0 13.225-10.724 23.946-23.952 23.946H24.392C11.15 244.919.402 234.199.385 220.959V29.999C.4 16.755 11.144 6.026 24.393 6.022h784.653c13.242 0 23.977 10.733 23.977 23.97V30l.006 190.96z"/></g><g opacity=".1"><g opacity=".1"><path fill="#fff" d="M809.052.458H388.765l164.619 250.017h255.668c16.315-.013 29.543-13.224 29.574-29.535V30.006C838.599 13.69 825.37.475 809.052.458z"/></g></g><g><path fill="#fff" d="M189.248 127.712c.208 23.615 20.674 31.43 20.918 31.516-.122.55-3.205 11.275-10.88 22.153-6.41 9.582-13.126 18.956-23.793 19.12-10.36.239-13.848-6.09-25.732-6.09-11.994 0-15.707 5.926-25.646 6.329-10.159.374-17.92-10.223-24.563-19.726-13.278-19.39-23.615-54.641-9.755-78.63 6.715-11.764 18.96-19.34 32.05-19.541 10.171-.208 19.608 6.866 25.86 6.866 6.128 0 17.798-8.462 29.828-7.197 5.034.147 19.36 1.988 28.601 15.458-.747.447-17.065 10.035-16.888 29.742zm-19.572-57.955c-5.578 6.579-14.502 11.612-23.193 10.964-1.138-8.88 3.266-18.32 8.196-24.08 5.572-6.537 15.248-11.545 22.985-11.887 1.015 9.227-2.642 18.32-7.988 25.003z"/></g><g><path fill="#fff" d="M333.209 192.31h-13.89l-7.609-23.901h-26.447l-7.248 23.902h-13.523l26.208-81.375h16.184zm-23.793-33.93l-6.881-21.248c-.727-2.171-2.097-7.283-4.104-15.33h-.244c-.808 3.46-2.098 8.573-3.866 15.33l-6.765 21.248zm82.926 27.529c-4.857 5.155-10.894 7.729-18.092 7.729-7.774 0-13.365-2.77-16.759-8.322v30.787h-13.04V152.92c0-6.268-.165-12.694-.483-19.286h11.468l.728 9.3h.244c4.349-7.007 10.948-10.511 19.805-10.511 6.924 0 12.704 2.734 17.328 8.206 4.617 5.485 6.935 12.688 6.935 21.622 0 9.979-2.709 17.867-8.134 23.658zm-9.016-37.312c-2.819-3.86-6.605-5.791-11.352-5.791-3.217 0-6.141 1.076-8.752 3.198-2.618 2.14-4.331 4.935-5.132 8.396a16.966 16.966 0 0 0-.605 3.968v9.79c0 4.262 1.309 7.863 3.926 10.81 2.618 2.936 6.019 4.409 10.202 4.409 4.912 0 8.735-1.901 11.469-5.674 2.74-3.785 4.11-8.775 4.11-14.975 0-5.711-1.285-10.42-3.866-14.131zm76.522 37.312c-4.863 5.155-10.893 7.729-18.098 7.729-7.774 0-13.365-2.77-16.759-8.322v30.787h-13.04V152.92c0-6.268-.165-12.694-.483-19.286h11.468l.728 9.3h.244c4.343-7.007 10.942-10.511 19.805-10.511 6.917 0 12.697 2.734 17.334 8.206 4.611 5.485 6.936 12.688 6.936 21.622 0 9.979-2.71 17.867-8.135 23.658zm-9.028-37.312c-2.82-3.86-6.593-5.791-11.34-5.791-3.217 0-6.14 1.076-8.764 3.198-2.618 2.14-4.325 4.935-5.126 8.396-.397 1.614-.611 2.929-.611 3.968v9.79c0 4.262 1.315 7.863 3.92 10.81 2.618 2.93 6.019 4.409 10.214 4.409 4.918 0 8.741-1.901 11.469-5.674 2.74-3.785 4.11-8.775 4.11-14.975 0-5.711-1.291-10.42-3.872-14.131zm85.403 37.795c-5.297 4.745-12.692 7.124-22.172 7.124-8.759 0-15.78-1.688-21.077-5.07l3.015-10.865c5.719 3.387 12 5.075 18.839 5.075 4.917 0 8.74-1.113 11.468-3.32 2.734-2.214 4.116-5.174 4.116-8.867 0-3.308-1.144-6.078-3.388-8.334-2.257-2.25-5.988-4.348-11.23-6.274-14.251-5.314-21.383-13.085-21.383-23.31 0-6.676 2.52-12.143 7.548-16.417 5.027-4.268 11.694-6.402 19.988-6.402 7.407 0 13.578 1.29 18.477 3.864l-3.272 10.628c-4.612-2.495-9.817-3.743-15.639-3.743-4.6 0-8.208 1.132-10.79 3.382-2.171 2.012-3.272 4.464-3.272 7.374 0 3.21 1.254 5.876 3.749 7.968 2.166 1.926 6.117 4.023 11.83 6.273 7.009 2.825 12.159 6.115 15.456 9.894 3.321 3.779 4.972 8.493 4.972 14.113 0 6.928-2.422 12.559-7.235 16.907zm36.086-42.974v28.488c0 7.246 2.532 10.86 7.609 10.86 2.33 0 4.263-.196 5.792-.605l.361 9.899c-2.569.96-5.951 1.443-10.141 1.443-5.15 0-9.175-1.571-12.08-4.714-2.893-3.143-4.349-8.408-4.349-15.82v-29.576h-8.562v-9.783h8.562v-10.744l12.808-3.864v14.608h14.373v9.808zm71.366 41.286c-5.389 5.962-12.557 8.934-21.493 8.934-8.624 0-15.481-2.856-20.594-8.561-5.113-5.717-7.67-12.92-7.67-21.61 0-9.092 2.642-16.54 7.909-22.33 5.278-5.797 12.385-8.695 21.321-8.695 8.612 0 15.53 2.86 20.765 8.573 5.003 5.54 7.493 12.694 7.493 21.474 0 9.02-2.581 16.425-7.731 22.215zm-9.279-35.76c-2.734-4.658-6.648-6.988-11.719-6.988-5.223 0-9.229 2.33-11.957 6.989-2.337 3.859-3.499 8.549-3.499 14.089 0 5.38 1.162 10.003 3.499 13.85 2.819 4.659 6.752 6.989 11.847 6.989 4.985 0 8.893-2.38 11.719-7.106 2.398-3.95 3.602-8.591 3.602-13.978 0-5.375-1.162-9.985-3.492-13.844zm55.304-4.206c-4.587 0-8.135 1.725-10.63 5.198-2.165 3.057-3.254 6.922-3.254 11.587v30.788h-13.04v-40.198c.012-6.16-.115-12.32-.379-18.473h11.358l.477 11.227h.361c1.382-3.86 3.547-6.971 6.52-9.301a15.777 15.777 0 0 1 9.425-3.143c1.205 0 2.294.086 3.26.239l.012 12.437a22.746 22.746 0 0 0-4.11-.361zm61.952 21.37h-39.12c.147 5.798 2.043 10.237 5.676 13.295 3.297 2.727 7.56 4.097 12.796 4.097 5.792 0 11.076-.918 15.829-2.77l2.043 9.043c-5.554 2.422-12.111 3.626-19.677 3.626-9.101 0-16.245-2.678-21.444-8.022-5.186-5.35-7.786-12.541-7.786-21.548 0-8.842 2.416-16.211 7.254-22.087 5.065-6.273 11.909-9.41 20.521-9.41 8.459 0 14.862 3.137 19.211 9.41 3.444 4.97 5.175 11.135 5.175 18.454a30.515 30.515 0 0 1-.478 5.913zm-14.489-19.315c-2.257-3.632-5.731-5.442-10.386-5.442-4.263 0-7.737 1.767-10.379 5.314-2.171 2.818-3.462 6.206-3.86 10.138l27.157.012c.092-3.871-.765-7.203-2.532-10.022z"/></g><g><path fill="#fff" d="M272.125 88.755V49.413a71.09 71.09 0 0 1 11.04-.832c14.955 0 21.842 7.356 21.842 19.347 0 13.832-8.135 21.304-23.506 21.304-3.627 0-6.764-.177-9.376-.477zm6.404-34.713V83.95c.77.122 2.25.177 4.33.177 9.799 0 15.377-5.576 15.377-16.02 0-9.313-5.046-14.48-14.545-14.48-2.018 0-3.737.122-5.162.416zm34.05 20.655c0-8.903 5.578-15.25 14.367-15.25 8.306 0 13.89 5.993 13.89 14.78 0 9.013-5.755 15.305-14.367 15.305-8.43 0-13.89-6.292-13.89-14.835zm6.538-.183c0 5.937 3.028 10.266 7.535 10.266 4.508 0 7.536-4.628 7.536-10.388 0-5.87-2.967-10.26-7.475-10.26-4.63 0-7.596 4.328-7.596 10.382zm69.78-14.474l-9.02 28.837h-5.878l-3.737-12.523a94.934 94.934 0 0 1-2.318-9.312h-.123c-.471 3.143-1.364 6.292-2.312 9.312l-3.975 12.523h-5.94l-8.49-28.837h6.589l3.266 13.71c.77 3.265 1.419 6.347 1.957 9.257h.122c.47-2.427 1.242-5.46 2.373-9.196l4.098-13.765h5.224l3.92 13.471a112.78 112.78 0 0 1 2.318 9.496h.172c.416-2.965 1.07-6.114 1.957-9.496l3.505-13.47zM415.7 88.877V72.32c0-5.1-1.957-7.656-5.816-7.656-3.8 0-6.41 3.265-6.41 7.063v17.151h-6.41V68.283c0-2.55-.061-5.283-.24-8.249h5.64l.3 4.452h.178c1.724-3.082 5.223-5.039 9.143-5.039 6.056 0 10.03 4.63 10.03 12.162l-.005 17.268zm33.567-14.18c0-8.903 5.578-15.25 14.36-15.25 8.313 0 13.89 5.993 13.89 14.78.007 9.013-5.754 15.305-14.36 15.305-8.422 0-13.89-6.292-13.89-14.835zm-9.481 14.18h-6.416V46.808h6.416zm16.013-14.363c0 5.937 3.034 10.266 7.529 10.266 4.514 0 7.535-4.628 7.535-10.388.007-5.87-2.954-10.26-7.468-10.26-4.63 0-7.596 4.328-7.596 10.382zm46.527 11.043h-.171c-1.958 2.672-4.814 3.975-8.435 3.975-5.168 0-8.838-3.62-8.838-8.488 0-7.117 6.172-10.798 16.857-10.798v-.532c0-3.798-2.013-5.699-5.988-5.699-2.844 0-5.34.715-7.535 2.14l-1.303-4.213c2.666-1.663 5.994-2.495 9.902-2.495 7.535 0 11.34 3.975 11.34 11.93v10.621c0 2.911.128 5.167.416 6.885l-5.78-.006zm-.416-11.043c-7.12 0-10.691 1.724-10.691 5.815 0 3.027 1.84 4.506 4.397 4.506 3.26 0 6.294-2.488 6.294-5.87zm37.07 9.734h-.176c-1.841 3.498-4.936 5.284-9.26 5.284-6.955 0-12.105-6.115-12.105-14.719 0-9.019 5.34-15.372 12.63-15.372 3.86 0 6.594 1.302 8.135 3.92h.129V46.808h6.416v34.298c0 2.788.067 5.4.239 7.771h-5.707zm-7.4-19.817c-4.752 0-7.657 4.213-7.657 10.144 0 5.815 3.015 9.796 7.529 9.796 4.03 0 6.88-3.504 6.88-7.656V71.91c0-4.036-2.672-7.478-6.752-7.478zm39.965 10.266c0-8.903 5.578-15.25 14.36-15.25 8.313 0 13.89 5.993 13.89 14.78.007 9.013-5.748 15.305-14.366 15.305-8.422 0-13.884-6.292-13.884-14.835zm6.532-.183c0 5.937 3.027 10.266 7.529 10.266 4.514 0 7.535-4.628 7.535-10.388.013-5.87-2.954-10.26-7.474-10.26-4.624 0-7.59 4.328-7.59 10.382zm56.19 14.363h-6.415V72.32c0-5.1-1.958-7.656-5.817-7.656-3.798 0-6.404 3.265-6.404 7.063v17.151h-6.416V68.283c0-2.55-.061-5.283-.238-8.249h5.639l.3 4.452h.177c1.719-3.082 5.223-5.045 9.138-5.045 6.055 0 10.037 4.63 10.037 12.162zm36.075-24.03v14.002c0 3.565 1.235 5.344 3.73 5.344 1.132 0 2.08-.122 2.845-.299l.177 4.867c-1.241.477-2.905.716-4.972.716-5.052 0-8.074-2.789-8.074-10.09v-14.54h-4.208V60.04h4.208v-5.283l6.294-1.902v7.18h7.052v4.811zm34.582 24.03V72.441c0-5.16-1.951-7.772-5.817-7.772-3.321 0-6.416 2.256-6.416 6.824v17.384h-6.404V46.808h6.404v17.323h.128c2.019-3.143 4.943-4.69 8.673-4.69 6.105 0 9.836 4.745 9.836 12.285v17.151zM726.857 76c.122 5.46 3.737 8.542 9.089 8.542 2.844 0 5.462-.477 7.774-1.364l.997 4.452c-2.728 1.186-5.94 1.78-9.676 1.78-9.022 0-14.362-5.7-14.362-14.535 0-8.842 5.468-15.489 13.64-15.489 7.37 0 11.994 5.46 11.994 13.71a12.36 12.36 0 0 1-.22 2.904zm7.015-12.162c-3.682 0-6.593 3.204-7.01 7.594h13.353c0-4.452-2.245-7.594-6.343-7.594z"/></g></g></svg>