<?xml version="1.0" encoding="UTF-8" standalone="no"?>
<svg
   xmlns:dc="http://purl.org/dc/elements/1.1/"
   xmlns:cc="http://creativecommons.org/ns#"
   xmlns:rdf="http://www.w3.org/1999/02/22-rdf-syntax-ns#"
   xmlns:svg="http://www.w3.org/2000/svg"
   xmlns="http://www.w3.org/2000/svg"
   xmlns:sodipodi="http://sodipodi.sourceforge.net/DTD/sodipodi-0.dtd"
   xmlns:inkscape="http://www.inkscape.org/namespaces/inkscape"
   version="1.1"
   id="svg10"
   width="21"
   height="20"
   viewBox="0 0 21 20"
   sodipodi:docname="blue-ok.svg"
   inkscape:version="1.0.1 (3bc2e813f5, 2020-09-07)">
  <metadata
     id="metadata16">
    <rdf:RDF>
      <cc:Work
         rdf:about="">
        <dc:format>image/svg+xml</dc:format>
        <dc:type
           rdf:resource="http://purl.org/dc/dcmitype/StillImage" />
        <dc:title></dc:title>
      </cc:Work>
    </rdf:RDF>
  </metadata>
  <defs
     id="defs14" />
  <sodipodi:namedview
     pagecolor="#ffffff"
     bordercolor="#666666"
     borderopacity="1"
     objecttolerance="10"
     gridtolerance="10"
     guidetolerance="10"
     inkscape:pageopacity="0"
     inkscape:pageshadow="2"
     inkscape:window-width="1920"
     inkscape:window-height="1027"
     id="namedview12"
     showgrid="false"
     inkscape:zoom="33.47619"
     inkscape:cx="10.5"
     inkscape:cy="10"
     inkscape:window-x="-8"
     inkscape:window-y="-8"
     inkscape:window-maximized="1"
     inkscape:current-layer="g18" />
  <g
     inkscape:groupmode="layer"
     inkscape:label="Image"
     id="g18">
    <path
       style="fill:#1ca8c3;fill-opacity:1"
       d="M 2.9529489,17.017179 C 0.66045131,14.724681 0.02987201,13.198016 0.02987201,9.940256 c 0,-3.275462 0.6298921,-4.7837383 2.97873649,-7.1325827 2.5919839,-2.59198376 3.5880778,-2.93905029 7.6718305,-2.67307686 2.581202,0.16811279 4.86059,0.81511671 5.065306,1.43778656 0.255609,0.7774656 -1.027483,0.9743611 -4.095802,0.6285171 C 7.8129069,1.7684105 6.818139,2.0610799 4.6059004,4.2733185 2.9490905,5.9301284 2.029872,7.9522931 2.029872,9.940256 c 0,1.948373 0.9073084,3.998217 2.4545455,5.545455 1.6946682,1.694668 3.5662177,2.454545 6.0454545,2.454545 2.479237,0 4.350786,-0.759877 6.045455,-2.454545 1.510197,-1.510198 2.454545,-3.603531 2.454545,-5.440983 0,-1.6425411 -0.419655,-3.245799 -0.932567,-3.5627958 -0.512911,-0.3169968 -2.200411,1.680988 -3.75,4.4399658 -1.549588,2.758979 -3.267433,5.011212 -3.817433,5.004963 -0.55,-0.0062 -2.0166369,-1.580792 -3.2591932,-3.498984 C 5.5102519,9.7102243 5.3369054,8.940256 6.485495,8.940256 c 0.8107052,0 1.9937459,0.9711363 2.6289794,2.158081 1.0923106,2.041 1.3476276,1.843088 4.7061196,-3.6480151 3.551149,-5.806096 3.551149,-5.806096 5.380214,-3.547297 1.084958,1.3398673 1.829064,3.8723162 1.829064,6.2249381 0,3.050294 -0.674985,4.641124 -2.923077,6.889216 -2.393304,2.393304 -3.766532,2.923077 -7.576923,2.923077 -3.8103914,0 -5.1836194,-0.529773 -7.5769231,-2.923077 z"
       id="path42" />
  </g>
</svg>
