<svg xmlns="http://www.w3.org/2000/svg" width="839" height="251" viewBox="0 0 839 251"><defs><linearGradient id="x2n0a" x1="122.91" x2="122.91" y1="50.64" y2="202.73" gradientUnits="userSpaceOnUse"><stop offset="0" stop-color="#267caf"/><stop offset=".29" stop-color="#4a92b4"/><stop offset=".77" stop-color="#79bcba"/><stop offset="1" stop-color="#88cebc"/></linearGradient><linearGradient id="x2n0b" x1="201.57" x2="183.02" y1="109.12" y2="151.07" gradientUnits="userSpaceOnUse"><stop offset="0" stop-color="#f48879"/><stop offset=".12" stop-color="#f5907a"/><stop offset=".71" stop-color="#fbb777"/><stop offset="1" stop-color="#fdc874"/></linearGradient><linearGradient id="x2n0c" x1="173.98" x2="90.53" y1="141.02" y2="208.51" gradientUnits="userSpaceOnUse"><stop offset="0" stop-color="#eb413d"/><stop offset=".17" stop-color="#d94452"/><stop offset=".58" stop-color="#af487a"/><stop offset=".86" stop-color="#954b92"/><stop offset="1" stop-color="#894a9c"/></linearGradient><linearGradient id="x2n0d" x1="96.45" x2="176.28" y1="54.77" y2="115.73" gradientUnits="userSpaceOnUse"><stop offset="0" stop-color="#54c0ac"/><stop offset="1" stop-color="#dde79a"/></linearGradient></defs><g><g><path fill="#fff" d="M833.029 220.85c0 13.225-10.724 23.946-23.952 23.946H24.392C11.15 244.81.402 234.09.385 220.85V29.89C.4 16.646 11.144 5.917 24.393 5.913h784.653c13.242 0 23.977 10.732 23.977 23.97v.007l.006 190.96z"/></g><g><path fill="#010101" d="M833.029 220.85c0 13.225-10.724 23.946-23.952 23.946H24.392C11.15 244.81.402 234.09.385 220.85V29.89C.4 16.646 11.144 5.917 24.393 5.913h784.653c13.242 0 23.977 10.732 23.977 23.97v.007l.006 190.96z"/></g><g opacity=".1"><g opacity=".1"><path fill="#fff" d="M809.052.349H388.765l164.619 250.017h255.668c16.315-.013 29.543-13.224 29.574-29.535V29.897C838.599 13.582 825.37.366 809.052.349z"/></g></g><g><path fill="#fff" d="M288.7 88.152c-3.667 3.667-7.945 5.5-13.445 5.5s-9.778-1.833-13.445-5.5-5.5-7.945-5.5-13.445 1.833-9.778 5.5-13.445 7.945-5.5 13.445-5.5c2.445 0 4.889.611 7.334 1.833 2.444 1.222 4.278 2.444 5.5 4.278l-3.056 3.056c-2.444-3.056-5.5-4.279-9.778-4.279-3.667 0-7.334 1.223-9.778 4.28-3.056 2.443-4.278 6.11-4.278 10.388s1.222 7.945 4.278 10.39c3.055 2.444 6.11 4.277 9.778 4.277 4.278 0 7.334-1.222 10.389-4.278 1.834-1.833 3.056-4.278 3.056-7.333h-13.445v-4.89h17.723v2.445c0 4.89-1.222 9.167-4.278 12.223zm32.39-27.502h-16.5v11.612h15.278v4.278H304.59v11.612h16.5v4.89H299.7V56.372h21.39zm20.168 32.391h-4.89v-32.39H325.98v-4.278h25.668v4.277h-10.39zm28.113-36.668h4.889v36.668h-4.89zm20.779 36.668v-32.39h-10.39v-4.278h25.057v4.277h-10.39v32.391zm49.502.611c-5.5 0-9.778-1.833-13.445-5.5s-5.5-7.945-5.5-13.445 1.833-9.778 5.5-13.445 7.945-5.5 13.445-5.5 9.778 1.833 13.445 5.5 5.5 7.945 5.5 13.445-1.833 9.778-5.5 13.445-7.945 5.5-13.445 5.5zm0-4.278c3.667 0 7.334-1.222 9.778-4.278a14.74 14.74 0 0 0 4.278-10.389c0-4.278-1.222-7.945-4.278-10.39-2.444-2.444-6.111-4.278-9.778-4.278-3.667 0-7.334 1.223-9.778 4.278a14.744 14.744 0 0 0-4.278 10.39c0 4.278 1.222 7.945 4.278 10.39 2.444 2.444 6.11 4.277 9.778 4.277zm25.668 3.667V56.373h5.5l17.723 28.723V56.373h4.889v36.668h-4.89l-18.944-29.946v29.946z"/></g><g><path fill="#fff" d="M419.484 138.872c14.667 0 26.279 10.39 26.279 26.28 0 15.278-11.612 26.279-26.279 26.279s-26.279-11.612-26.279-26.279c0-15.279 11.612-26.28 26.279-26.28zm0 41.558c7.945 0 14.667-6.722 14.667-15.89 0-9.778-6.722-15.889-14.667-15.889-7.945 0-14.667 6.722-14.667 15.889 0 9.168 6.722 15.89 14.667 15.89zm-56.836-41.558c14.667 0 26.279 10.39 26.279 26.28 0 15.278-11.612 26.279-26.279 26.279-14.668 0-26.279-11.612-26.279-26.279 0-15.279 11.611-26.28 26.279-26.28zm0 41.558c7.945 0 14.667-6.722 14.667-15.89 0-9.778-6.722-15.889-14.667-15.889-7.945 0-14.668 6.722-14.668 15.889 0 9.168 6.723 15.89 14.668 15.89zm-29.946-33.613c.611 1.834.611 4.278.611 6.723 0 7.945-2.444 18.334-9.778 25.668-7.334 7.945-15.89 11.612-28.113 11.612-22.001 0-40.946-18.335-40.946-40.336 0-22.001 18.945-40.335 40.946-40.335 12.223 0 20.779 4.889 27.502 11l-7.945 7.945c-4.889-4.278-11.612-7.945-20.168-7.945-15.889 0-28.723 12.834-28.723 29.335s12.222 29.335 28.723 29.335c10.39 0 16.501-4.278 20.168-7.945 3.056-3.056 5.5-7.945 6.111-14.056h-26.279v-11.001zm240.79 11.612l-34.835 14.667c3.055 5.501 6.722 7.945 12.834 7.945 6.111 0 9.778-3.055 12.834-7.333l8.555 6.111c-2.444 4.278-9.778 11.612-21.389 11.612-14.668 0-25.668-11.612-25.668-26.279 0-15.89 11-26.28 24.445-26.28s19.557 10.39 22.001 16.501zm-36.669 5.5l23.223-9.778c-1.222-3.056-5.5-5.5-9.778-5.5-5.5 0-13.445 5.5-13.445 15.278zm-28.724-51.336h11.612v76.393h-11.612zm-18.334 31.78v-4.278h11.001v46.447c0 18.945-11.001 26.89-24.446 26.89-12.834 0-20.168-8.556-23.223-15.279l9.778-4.278c1.222 4.278 6.111 9.167 12.834 9.167 8.556 0 14.056-5.5 14.056-15.278v-3.667h-.611c-2.444 3.056-7.334 6.111-13.445 6.111-13.445 0-25.057-11-25.057-25.668 0-14.667 12.223-26.279 25.057-26.279 6.111 0 11.001 3.056 14.056 6.112zM476.32 180.43c7.945 0 14.056-6.722 14.056-15.89 0-9.167-6.111-15.889-14.056-15.889-7.945 0-14.667 6.722-14.667 15.889 0 9.168 6.722 15.89 14.667 15.89zm149.119-67.837c12.834 0 25.056 9.168 25.056 23.835 0 14.667-12.222 23.834-25.056 23.834h-15.89v28.724h-11.612v-76.393zm.611 36.669c7.945 0 12.834-6.723 13.445-13.445 0-5.5-4.889-12.834-13.445-12.834h-16.501v26.279zm70.281-11.001c12.834 0 23.223 7.945 24.446 21.39v29.335h-11.001v-6.111h-.611c-3.056 3.667-6.723 7.333-14.667 7.333-9.779 0-18.946-6.722-18.946-17.112 0-11 11.001-17.112 22.001-17.112 4.889 0 9.779 1.834 11.612 3.056v-.611c-.611-6.111-6.111-9.778-12.223-9.778-4.278 0-7.945 1.222-10.389 5.5l-10.39-4.278c3.056-7.945 11.612-11.612 20.168-11.612zm-1.222 42.169c6.111 0 12.223-4.889 13.445-12.223-3.056-1.222-5.5-2.444-10.39-2.444-5.5 0-12.222 1.833-12.222 7.945 0 4.889 5.5 6.722 9.167 6.722zm64.17-40.335h12.223l-31.169 72.114h-11.611l11.611-25.667-20.167-46.447h12.222l13.446 33.001h.611zm-102.672-27.502h11.612v76.393h-11.612z"/></g><g><path fill="url(#x2n0a)" d="M83.187 59.638v135.063c0 3.667 1.222 6.723 3.055 8.556l.611.611 75.782-75.781v-1.223L85.631 51.083c-1.833 1.833-2.444 4.889-2.444 8.555z"/></g><g><path fill="url(#x2n0b)" d="M162.024 126.864v1.834l25.057 25.056 30.557-16.501c8.556-4.888 8.556-12.834 0-17.722l-29.946-17.112-.611-.611z"/></g><g><path fill="url(#x2n0c)" d="M187.691 153.143l.001.001v-.001zm-102.06 50.725c3.055 3.055 7.334 3.055 12.834.611l89.226-51.336-25.667-25.667z"/></g><g><path fill="url(#x2n0d)" d="M85.631 51.694l76.393 75.782 25.668-25.668-89.227-50.725c-2.477-1.376-4.708-2.009-6.689-2.009-2.418 0-4.466.941-6.145 2.62z"/></g></g></svg>