<svg xmlns="http://www.w3.org/2000/svg" width="839" height="251" viewBox="0 0 839 251"><g><g><path fill="#fff" d="M833.029 221.067c0 13.225-10.724 23.946-23.952 23.946H24.392C11.15 245.027.402 234.307.385 221.067V30.107C.4 16.863 11.144 6.134 24.393 6.13h784.653c13.242 0 23.977 10.733 23.977 23.971v.006l.006 190.96z"/></g><g><path fill="#010101" d="M833.029 221.067c0 13.225-10.724 23.946-23.952 23.946H24.392C11.15 245.027.402 234.307.385 221.067V30.107C.4 16.863 11.144 6.134 24.393 6.13h784.653c13.242 0 23.977 10.733 23.977 23.971v.006l.006 190.96z"/></g><g opacity=".1"><g opacity=".1"><path fill="#fff" d="M809.052.566H388.765l164.619 250.017h255.668c16.315-.013 29.543-13.224 29.574-29.535V30.114C838.599 13.8 825.37.584 809.052.566z"/></g></g><g><path fill="#fff" d="M242.204 78.763l-4.603 13.944h-5.92l15.062-44.335h6.906l15.13 44.336h-6.118l-4.735-13.945zm14.537-4.475L252.4 61.528c-.986-2.897-1.643-5.526-2.3-8.092h-.132c-.658 2.631-1.382 5.327-2.239 8.026L243.39 74.29z"/></g><g><path fill="#fff" d="M275.962 60.87l6.249 17.892c1.053 2.893 1.907 5.525 2.567 8.156h.197c.724-2.63 1.643-5.263 2.696-8.156l6.184-17.893h6.053L287.41 92.707h-5.528L269.778 60.87z"/></g><g><path fill="#fff" d="M322.743 92.707l-.46-4.013h-.197c-1.777 2.5-5.198 4.737-9.737 4.737-6.446 0-9.734-4.538-9.734-9.144 0-7.696 6.84-11.906 19.143-11.84v-.659c0-2.63-.725-7.366-7.238-7.366-2.96 0-6.052.918-8.288 2.367l-1.314-3.817c2.629-1.71 6.445-2.828 10.459-2.828 9.734 0 12.102 6.645 12.102 13.026v11.906c0 2.764.132 5.46.528 7.632zm-.856-16.247c-6.314-.132-13.484.986-13.484 7.17 0 3.75 2.5 5.525 5.46 5.525 4.143 0 6.774-2.632 7.695-5.328.2-.593.329-1.25.329-1.842z"/></g><g><path fill="#fff" d="M343.276 51.921c0-2.039-1.382-3.617-3.553-3.617-2.104 0-3.618 1.578-3.618 3.617 0 1.975 1.447 3.553 3.488 3.553 2.301 0 3.75-1.578 3.683-3.553zm-6.446 40.786h5.788V60.869h-5.788z"/></g><g><path fill="#fff" d="M352.226 46.001h5.788v46.706h-5.788z"/></g><g><path fill="#fff" d="M385.383 92.707l-.46-4.013h-.197c-1.777 2.5-5.198 4.737-9.737 4.737-6.446 0-9.734-4.538-9.734-9.144 0-7.696 6.841-11.906 19.143-11.84v-.659c0-2.63-.725-7.366-7.238-7.366-2.96 0-6.052.918-8.288 2.367l-1.314-3.817c2.628-1.71 6.445-2.828 10.46-2.828 9.733 0 12.101 6.645 12.101 13.026v11.906c0 2.764.132 5.46.528 7.632zm-.856-16.247c-6.314-.132-13.484.986-13.484 7.17 0 3.75 2.5 5.525 5.46 5.525 4.143 0 6.774-2.632 7.695-5.328.2-.593.33-1.25.33-1.842z"/></g><g><path fill="#fff" d="M399.207 92.707c.132-2.171.264-5.395.264-8.223V46.001h5.72V66h.133c2.039-3.552 5.724-5.855 10.855-5.855 7.895 0 13.484 6.577 13.419 16.247 0 11.38-7.17 17.04-14.276 17.04-4.603 0-8.288-1.778-10.655-5.988h-.197l-.264 5.263zm5.985-12.762c0 .725.132 1.446.264 2.106 1.118 4.011 4.474 6.775 8.684 6.775 6.052 0 9.67-4.935 9.67-12.235 0-6.381-3.29-11.84-9.473-11.84-3.947 0-7.631 2.696-8.814 7.103-.132.657-.331 1.449-.331 2.367z"/></g><g><path fill="#fff" d="M436.91 46.001h5.788v46.706h-5.788z"/></g><g><path fill="#fff" d="M455.66 77.841c.132 7.828 5.131 11.052 10.92 11.052 4.145 0 6.645-.725 8.816-1.646l.985 4.146c-2.039.918-5.524 1.971-10.59 1.971-9.8 0-15.656-6.445-15.656-16.051 0-9.602 5.657-17.168 14.933-17.168 10.392 0 13.156 9.144 13.156 14.997 0 1.186-.132 2.107-.197 2.699zm16.972-4.145c.067-3.685-1.51-9.406-8.024-9.406-5.856 0-8.42 5.393-8.88 9.406z"/></g><g><path fill="#fff" d="M512.313 93.432c-8.617 0-15.262-6.317-15.262-16.38 0-10.658 6.974-16.907 15.787-16.907 9.145 0 15.33 6.645 15.33 16.379 0 11.777-8.16 16.908-15.855 16.908zm.264-4.342c5.524 0 9.67-5.2 9.67-12.37 0-5.392-2.699-12.233-9.54-12.233-6.84 0-9.8 6.316-9.8 12.366 0 6.974 4.011 12.237 9.67 12.237z"/></g><g><path fill="#fff" d="M535.48 69.486c0-3.29-.067-5.985-.264-8.617h5.13l.33 5.263h.132c1.578-3.027 5.263-5.987 10.524-5.987 4.409 0 11.25 2.63 11.25 13.55v19.012h-5.791V74.353c0-5.131-1.907-9.406-7.366-9.406-3.815 0-6.775 2.697-7.763 5.92-.262.725-.394 1.71-.394 2.697v19.143h-5.788z"/></g><g><path fill="#fff" d="M362.102 144.167c4.859 0 8.568 1.621 11.129 4.864 2.559 3.243 3.84 7.928 3.84 14.053v28.064h-8.689v-25.866c.181-11.173-4.444-13.603-10.351-13.603-3.082 0-5.57 1.925-7.58 4.301-2.006 2.375-3.01 5.373-3.01 8.988v26.18h-10.166v-45.905h10.166v7.621h.175c3.344-5.798 8.174-8.697 14.486-8.697zm97.119 0c7.173 0 12.759 2.107 16.764 6.321 4.005 4.213 6.008 10.058 6.008 17.529 0 7.322-2.161 13.187-6.479 17.595-4.317 4.409-10.123 6.612-17.413 6.612-7.086 0-12.74-2.144-16.97-6.433-4.228-4.289-6.341-9.974-6.341-17.058 0-7.711 2.202-13.731 6.611-18.066 4.407-4.333 10.347-6.5 17.82-6.5zm8.807 35.73c2.198-2.72 3.296-6.591 3.296-11.61 0-5.052-1.098-8.951-3.296-11.701-2.195-2.75-5.34-4.125-9.435-4.125-4.066 0-7.278 1.419-9.637 4.259-2.363 2.84-3.541 6.754-3.541 11.745 0 4.813 1.193 8.601 3.586 11.364 2.39 2.765 5.588 4.145 9.592 4.145 4.095 0 7.24-1.358 9.435-4.077zm-49.466-56.709h10.4v67.96h-10.4v-6.638h-.179c-3.346 5.918-8.502 7.714-15.464 7.714-5.648 0-10.168-2.054-13.562-6.165-3.393-4.11-5.089-9.704-5.089-16.788 0-7.59 1.876-13.672 5.627-18.245 3.752-4.574 8.75-6.859 14.996-6.859 6.188 0 10.686.684 13.492 5.645h.179zm.135 40.819c0-3.38-1.102-6.25-3.305-8.609-2.204-2.358-5.013-3.536-8.424-3.536-4.033 0-7.205 1.505-9.518 4.513-2.311 3.011-3.467 7.184-3.467 12.519 0 4.839 1.109 8.664 3.329 11.472 2.216 2.809 5.203 4.21 8.957 4.21 3.693 0 6.686-1.356 8.984-4.072 2.297-2.715 3.444-6.135 3.444-10.26zm120.571-18.763h9.836l-13.439 45.905h-10.814l-8.279-31.111c-.327-1.194-.533-2.541-.622-4.034h-.179c-.059 1.016-.327 2.331-.8 3.944l-8.989 31.201h-10.594l-13.392-45.905h10.681l8.276 33.084c.268.986.445 2.3.536 3.944h.31c.09-1.256.327-2.601.713-4.034l9.211-32.994h9.699l8.19 33.218c.268 1.047.46 2.362.577 3.944h.313c.059-1.105.281-2.42.665-3.944zm-221.386 0h10.4v45.905h-10.4zm-14.213-18.383l10.862.003-17.351 64.284h-11.876l-12.054-44.963c-.501-1.913-.81-4.005-.925-6.277h-.176a31.115 31.115 0 0 1-1.059 6.187l-12.097 45.053h-12.141l-17.71-64.284h11.524l11.48 47.072c.471 1.972.766 4.032.882 6.186h.221c.116-1.524.529-3.586 1.235-6.186l12.983-47.072h10.818l12.009 47.428c.412 1.616.721 3.529.926 5.738h.177c.089-1.494.427-3.466 1.014-5.918zm273.458 42.972a11.236 11.236 0 0 1 2.354 3.676c.551 1.39.828 3.04.828 4.954 0 2.33-.496 4.363-1.488 6.097a12.962 12.962 0 0 1-3.964 4.303c-1.653 1.137-3.561 1.98-5.721 2.534-2.162.553-4.44.831-6.835.831-4.63-.004-8.636-.841-12.023-2.515v-9.638c3.578 2.959 7.53 4.437 11.856 4.437 5.783 0 8.671-1.852 8.671-5.558 0-1.045-.247-1.934-.743-2.667-.494-.732-1.162-1.381-2.003-1.951-.838-.566-1.829-1.076-2.972-1.523a467.229 467.229 0 0 1-3.82-1.525 38.738 38.738 0 0 1-4.688-2.375c-1.39-.836-2.548-1.785-3.471-2.849a10.856 10.856 0 0 1-2.084-3.608c-.472-1.343-.702-2.913-.702-4.706 0-2.211.478-4.161 1.443-5.851a13.18 13.18 0 0 1 3.884-4.257c1.625-1.15 3.471-2.018 5.533-2.6a23.485 23.485 0 0 1 6.404-.875c3.909 0 7.403.643 10.491 1.928v9.1c-2.974-2.211-6.39-3.317-10.243-3.317-1.211 0-2.307.135-3.283.404-.975.269-1.81.642-2.497 1.121a5.312 5.312 0 0 0-1.612 1.726 4.397 4.397 0 0 0-.578 2.22c0 .986.193 1.823.578 2.51.384.688.958 1.294 1.713 1.814.757.524 1.667 1.004 2.726 1.436 1.059.432 2.276.904 3.656 1.414a51.236 51.236 0 0 1 4.894 2.463c1.445.836 2.677 1.786 3.696 2.847zM323.38 124.406c3.456 0 6.256 2.579 6.256 5.76 0 3.182-2.8 5.761-6.256 5.761-3.455 0-6.256-2.579-6.256-5.761 0-3.181 2.801-5.76 6.256-5.76zm422.895 20.386c.936 0 1.782.067 2.533.186l.01 9.665a17.632 17.632 0 0 0-3.194-.28c-3.565 0-6.322 1.34-8.262 4.039-1.682 2.376-2.528 5.379-2.528 9.005v23.926H724.7v-31.239c.009-4.787-.089-9.573-.295-14.356h8.827l.371 8.725h.28c1.074-2.999 2.757-5.417 5.067-7.228a12.26 12.26 0 0 1 7.325-2.443zm-86.045.922h11.17v7.623h-11.17v22.139c0 5.631 1.967 8.44 5.913 8.44 1.811 0 3.313-.152 4.501-.471l.28 7.694c-1.996.746-4.624 1.121-7.881 1.121-4.002 0-7.129-1.221-9.387-3.664-2.248-2.442-3.38-6.534-3.38-12.293v-22.985h-6.654v-7.604h6.654v-8.349l9.954-3.003zm37.008-.907c6.692 0 12.068 2.224 16.137 6.662 3.888 4.305 5.823 9.865 5.823 16.689 0 7.009-2.006 12.764-6.008 17.264-4.188 4.633-9.759 6.943-16.703 6.943-6.702 0-12.031-2.22-16.004-6.653-3.974-4.443-5.961-10.041-5.961-16.794 0-7.066 2.054-12.854 6.146-17.354 4.102-4.505 9.625-6.757 16.57-6.757zm8.656 34.447c1.863-3.07 2.799-6.677 2.799-10.863 0-4.177-.903-7.76-2.714-10.759-2.125-3.621-5.167-5.431-9.107-5.431-4.059 0-7.173 1.81-9.293 5.431-1.815 2.999-2.719 6.644-2.719 10.949 0 4.182.904 7.774 2.719 10.763 2.191 3.621 5.248 5.432 9.207 5.432 3.874 0 6.912-1.849 9.108-5.522zm85.745-12.878a23.75 23.75 0 0 1-.37 4.595h-30.402c.114 4.505 1.587 7.955 4.411 10.331 2.562 2.119 5.875 3.184 9.944 3.184 4.501 0 8.608-.713 12.301-2.153l1.588 7.028c-4.316 1.882-9.412 2.818-15.292 2.818-7.073 0-12.624-2.081-16.664-6.234-4.031-4.158-6.051-9.747-6.051-16.746 0-6.872 1.877-12.598 5.637-17.164 3.936-4.876 9.254-7.314 15.947-7.314 6.574 0 11.551 2.438 14.93 7.314 2.676 3.863 4.021 8.653 4.021 14.341zm-9.663-2.628c.071-3.008-.594-5.598-1.968-7.788-1.754-2.823-4.454-4.23-8.071-4.23-3.313 0-6.013 1.374-8.066 4.13-1.688 2.191-2.69 4.823-3 7.879zm-155.042-8.81c5.447 2.195 9.449 4.752 12.012 7.689 2.581 2.936 3.864 6.6 3.864 10.967 0 5.384-1.882 9.761-5.623 13.14-4.116 3.687-9.863 5.536-17.231 5.536-6.806 0-12.263-1.312-16.379-3.94l2.343-8.444c4.444 2.633 9.326 3.944 14.64 3.944 3.822 0 6.792-.865 8.912-2.58 2.125-1.721 3.199-4.02 3.199-6.891 0-2.57-.889-4.723-2.633-6.477-1.754-1.748-4.653-3.378-8.727-4.875-11.075-4.13-16.617-10.169-16.617-18.115 0-5.189 1.958-9.437 5.865-12.759 3.907-3.317 9.088-4.975 15.534-4.975 5.756 0 10.552 1.003 14.359 3.003l-2.543 8.259c-3.584-1.939-7.629-2.908-12.154-2.908-3.574 0-6.379.879-8.384 2.628-1.688 1.563-2.543 3.469-2.543 5.731 0 2.494.974 4.566 2.913 6.191 1.683 1.497 4.753 3.127 9.193 4.876z"/></g><g><path fill="#fff" d="M129.542 61.058c-6.621 2.326-11.452 4.295-11.452 16.82v6.084l3.937-.715v-5.19c-.179-8.59 2.147-10.378 7.873-12.883 0-1.611 0-3.042-.358-4.116z"/></g><g><path fill="#fff" d="M140.994 58.373c.18 1.254.537 2.506.537 3.938 10.378-1.433 10.2 2.862 10.2 11.63v3.221l3.936-.716v-2.504c0-13.78-2.147-17.536-14.673-15.568z"/></g><g><path fill="#fff" d="M100.375 87.54V69.29c-.18-11.273 5.726-14.673 16.463-17.178 16.104-3.758 17.178 6.62 17.178 13.24v15.39l3.937-.716V65.71c0-12.526-3.937-22.01-22.01-17.894-9.663 2.147-19.505 4.653-19.505 21.115v19.326l3.937-.716z"/></g><g><path fill="#fff" d="M175.53 77.34l21.652 8.054V192.22l-21.652 7.873-108.796-21.83V99.172zm-61.198 84.46v-23.44H90.175v20.04zm0-48.313l-24.157 3.4v18.43h24.157zm33.462 24.873h-30.42v23.62l30.42 4.474zm0-29.525l-30.42 4.473v22.01h30.42z"/></g></g></svg>